<svg width="362" height="362" viewBox="0 0 362 362" fill="none" xmlns="http://www.w3.org/2000/svg">
<g clip-path="url(#clip0_56930_13692)" filter="url(#filter0_n_56930_13692)">
<rect width="362" height="362" fill="#3259FF"/>
<g filter="url(#filter1_i_56930_13692)">
<path d="M171.816 -99.9845C177.078 -104.577 184.923 -104.577 190.184 -99.9845L265.379 -34.359C267.679 -32.3523 270.572 -31.1539 273.617 -30.947L373.192 -24.1803C380.16 -23.7068 385.707 -18.1596 386.18 -11.1917L392.947 88.3833C393.154 91.4282 394.352 94.3214 396.359 96.6207L461.984 171.816C466.577 177.078 466.577 184.923 461.984 190.184L396.359 265.379C394.352 267.679 393.154 270.572 392.947 273.617L386.18 373.192C385.707 380.16 380.16 385.707 373.192 386.18L273.617 392.947C270.572 393.154 267.679 394.352 265.379 396.359L190.184 461.984C184.923 466.577 177.077 466.577 171.816 461.984L96.6207 396.359C94.3214 394.352 91.4282 393.154 88.3833 392.947L-11.1917 386.18C-18.1596 385.707 -23.7068 380.16 -24.1803 373.192L-30.947 273.617C-31.1539 270.572 -32.3523 267.679 -34.359 265.379L-99.9845 190.184C-104.577 184.923 -104.577 177.077 -99.9844 171.816L-34.359 96.6207C-32.3523 94.3214 -31.1539 91.4282 -30.947 88.3833L-24.1803 -11.1917C-23.7068 -18.1596 -18.1596 -23.7068 -11.1917 -24.1803L88.3833 -30.947C91.4282 -31.1539 94.3214 -32.3523 96.6207 -34.359L171.816 -99.9845Z" fill="url(#paint0_radial_56930_13692)" fill-opacity="0.4"/>
</g>
<path d="M177.114 200.642L79.362 257.222L65 242.861L150.693 185.28L177.114 200.642Z" fill="url(#paint1_linear_56930_13692)"/>
<path d="M179.324 204.469L81.4471 260.834L86.7038 280.453L179.417 235.031L179.324 204.469Z" fill="url(#paint2_linear_56930_13692)"/>
<path d="M183.209 204.468L281.086 260.834L275.829 280.452L183.116 235.031L183.209 204.468Z" fill="url(#paint3_linear_56930_13692)"/>
<path d="M185.419 200.641L283.171 257.222L297.533 242.86L211.84 185.279L185.419 200.641Z" fill="url(#paint4_linear_56930_13692)"/>
<path d="M183.21 196.46L183.085 83.5141L202.704 78.2571L209.724 181.26L183.21 196.46Z" fill="url(#paint5_linear_56930_13692)"/>
<path d="M178.79 196.46L178.915 83.5141L159.296 78.2571L152.276 181.26L178.79 196.46Z" fill="url(#paint6_linear_56930_13692)"/>
</g>
<defs>
<filter id="filter0_n_56930_13692" x="0" y="0" width="362" height="362" filterUnits="userSpaceOnUse" color-interpolation-filters="sRGB">
<feFlood flood-opacity="0" result="BackgroundImageFix"/>
<feBlend mode="normal" in="SourceGraphic" in2="BackgroundImageFix" result="shape"/>
<feTurbulence type="fractalNoise" baseFrequency="2 2" stitchTiles="stitch" numOctaves="3" result="noise" seed="1804" />
<feColorMatrix in="noise" type="luminanceToAlpha" result="alphaNoise" />
<feComponentTransfer in="alphaNoise" result="coloredNoise1">
<feFuncA type="discrete" tableValues="0 0 0 0 0 0 0 0 0 0 0 0 1 1 1 1 1 1 1 1 1 1 1 1 1 1 1 1 1 1 1 1 1 1 1 1 1 1 0 0 0 0 0 0 0 0 0 0 0 0 0 0 0 0 0 0 0 0 0 0 0 0 0 0 0 0 0 0 0 0 0 0 0 0 0 0 0 0 0 0 0 0 0 0 0 0 0 0 0 0 0 0 0 0 0 0 0 0 0 0 "/>
</feComponentTransfer>
<feComposite operator="in" in2="shape" in="coloredNoise1" result="noise1Clipped" />
<feFlood flood-color="rgba(0, 0, 0, 0.25)" result="color1Flood" />
<feComposite operator="in" in2="noise1Clipped" in="color1Flood" result="color1" />
<feMerge result="effect1_noise_56930_13692">
<feMergeNode in="shape" />
<feMergeNode in="color1" />
</feMerge>
</filter>
<filter id="filter1_i_56930_13692" x="-103.428" y="-103.429" width="568.855" height="574.524" filterUnits="userSpaceOnUse" color-interpolation-filters="sRGB">
<feFlood flood-opacity="0" result="BackgroundImageFix"/>
<feBlend mode="normal" in="SourceGraphic" in2="BackgroundImageFix" result="shape"/>
<feColorMatrix in="SourceAlpha" type="matrix" values="0 0 0 0 0 0 0 0 0 0 0 0 0 0 0 0 0 0 127 0" result="hardAlpha"/>
<feOffset dy="5.66666"/>
<feGaussianBlur stdDeviation="8.49999"/>
<feComposite in2="hardAlpha" operator="arithmetic" k2="-1" k3="1"/>
<feColorMatrix type="matrix" values="0 0 0 0 0 0 0 0 0 0 0 0 0 0 0 0 0 0 0.35 0"/>
<feBlend mode="normal" in2="shape" result="effect1_innerShadow_56930_13692"/>
</filter>
<radialGradient id="paint0_radial_56930_13692" cx="0" cy="0" r="1" gradientUnits="userSpaceOnUse" gradientTransform="translate(62.5903 8.40278) rotate(49.4258) scale(459.748)">
<stop stop-color="#376A80"/>
<stop offset="1" stop-color="#013145"/>
</radialGradient>
<linearGradient id="paint1_linear_56930_13692" x1="181.266" y1="78.2571" x2="181.266" y2="280.453" gradientUnits="userSpaceOnUse">
<stop stop-color="#F8F6FF"/>
<stop offset="1" stop-color="#F8F6FF" stop-opacity="0.6"/>
</linearGradient>
<linearGradient id="paint2_linear_56930_13692" x1="181.266" y1="78.2571" x2="181.266" y2="280.453" gradientUnits="userSpaceOnUse">
<stop stop-color="#F8F6FF"/>
<stop offset="1" stop-color="#F8F6FF" stop-opacity="0.6"/>
</linearGradient>
<linearGradient id="paint3_linear_56930_13692" x1="181.266" y1="78.2571" x2="181.266" y2="280.453" gradientUnits="userSpaceOnUse">
<stop stop-color="#F8F6FF"/>
<stop offset="1" stop-color="#F8F6FF" stop-opacity="0.6"/>
</linearGradient>
<linearGradient id="paint4_linear_56930_13692" x1="181.266" y1="78.2571" x2="181.266" y2="280.453" gradientUnits="userSpaceOnUse">
<stop stop-color="#F8F6FF"/>
<stop offset="1" stop-color="#F8F6FF" stop-opacity="0.6"/>
</linearGradient>
<linearGradient id="paint5_linear_56930_13692" x1="181.266" y1="78.2571" x2="181.266" y2="280.453" gradientUnits="userSpaceOnUse">
<stop stop-color="#F8F6FF"/>
<stop offset="1" stop-color="#F8F6FF" stop-opacity="0.6"/>
</linearGradient>
<linearGradient id="paint6_linear_56930_13692" x1="181.266" y1="78.2571" x2="181.266" y2="280.453" gradientUnits="userSpaceOnUse">
<stop stop-color="#F8F6FF"/>
<stop offset="1" stop-color="#F8F6FF" stop-opacity="0.6"/>
</linearGradient>
<clipPath id="clip0_56930_13692">
<rect width="362" height="362" fill="white"/>
</clipPath>
</defs>
</svg>
