<svg width="362" height="362" viewBox="0 0 362 362" fill="none" xmlns="http://www.w3.org/2000/svg">
<g clip-path="url(#clip0_56965_221734)" filter="url(#filter0_n_56965_221734)">
<rect width="362" height="362" fill="#6B35FF"/>
<g filter="url(#filter1_i_56965_221734)">
<path d="M174.331 38.6248C178.154 35.2887 183.853 35.2887 187.676 38.6248L223.516 69.9038C225.186 71.3616 227.288 72.2323 229.5 72.3826L276.96 75.6078C282.022 75.9517 286.052 79.9816 286.396 85.0436L289.621 132.504C289.772 134.716 290.642 136.818 292.1 138.488L323.379 174.328C326.715 178.151 326.715 183.85 323.379 187.673L292.1 223.513C290.642 225.183 289.772 227.285 289.621 229.497L286.396 276.957C286.052 282.019 282.022 286.049 276.96 286.393L229.5 289.618C227.288 289.769 225.186 290.639 223.516 292.097L187.676 323.376C183.853 326.712 178.154 326.712 174.331 323.376L138.491 292.097C136.821 290.639 134.719 289.769 132.507 289.618L85.0465 286.393C79.9846 286.049 75.9547 282.019 75.6107 276.957L72.3855 229.497C72.2352 227.285 71.3646 225.183 69.9068 223.513L38.6277 187.673C35.2916 183.85 35.2916 178.151 38.6277 174.328L69.9068 138.488C71.3646 136.818 72.2352 134.716 72.3855 132.504L75.6107 85.0436C75.9547 79.9816 79.9846 75.9517 85.0465 75.6078L132.507 72.3826C134.719 72.2323 136.821 71.3616 138.491 69.9038L174.331 38.6248Z" fill="url(#paint0_radial_56965_221734)" fill-opacity="0.4"/>
</g>
<g filter="url(#filter2_dddddd_56965_221734)">
<path d="M136.882 154.436H101.865V119.419H114.598V133.528C129.74 112.747 154.11 100 180.494 100C202.262 100 222.726 108.476 238.119 123.868C253.511 139.261 261.988 159.726 261.988 181.494H249.254C249.254 143.579 218.408 112.733 180.494 112.733C157.945 112.733 137.14 123.766 124.402 141.701H136.882V154.436ZM224.105 220.968H236.807C224.075 239.08 203.096 250.267 180.494 250.267C142.579 250.267 111.733 219.421 111.733 181.506H99C99 203.274 107.478 223.739 122.868 239.132C138.261 254.524 158.726 263 180.494 263C196.419 263 211.848 258.404 225.114 249.71C233.424 244.263 240.611 237.401 246.389 229.47V243.251H259.122V208.233H224.105V220.968ZM202.141 149.024C210.917 149.024 218.058 156.164 218.058 164.94V198.684C218.058 207.46 210.917 214.601 202.141 214.601H158.847C150.071 214.601 142.93 207.46 142.93 198.684V164.94C142.93 156.164 150.071 149.024 158.847 149.024H202.141ZM202.141 161.757H158.847C157.092 161.757 155.664 163.186 155.664 164.94V198.684C155.664 200.439 157.092 201.868 158.847 201.868H202.141C203.896 201.868 205.323 200.439 205.323 198.684V164.94C205.323 163.186 203.896 161.757 202.141 161.757ZM169.989 185.314H190.998V172.581H169.989V185.314Z" fill="url(#paint1_linear_56965_221734)"/>
</g>
</g>
<defs>
<filter id="filter0_n_56965_221734" x="0" y="0" width="362" height="362" filterUnits="userSpaceOnUse" color-interpolation-filters="sRGB">
<feFlood flood-opacity="0" result="BackgroundImageFix"/>
<feBlend mode="normal" in="SourceGraphic" in2="BackgroundImageFix" result="shape"/>
<feTurbulence type="fractalNoise" baseFrequency="2 2" stitchTiles="stitch" numOctaves="3" result="noise" seed="1804" />
<feColorMatrix in="noise" type="luminanceToAlpha" result="alphaNoise" />
<feComponentTransfer in="alphaNoise" result="coloredNoise1">
<feFuncA type="discrete" tableValues="0 0 0 0 0 0 0 0 0 0 0 0 1 1 1 1 1 1 1 1 1 1 1 1 1 1 1 1 1 1 1 1 1 1 1 1 1 1 0 0 0 0 0 0 0 0 0 0 0 0 0 0 0 0 0 0 0 0 0 0 0 0 0 0 0 0 0 0 0 0 0 0 0 0 0 0 0 0 0 0 0 0 0 0 0 0 0 0 0 0 0 0 0 0 0 0 0 0 0 0 "/>
</feComponentTransfer>
<feComposite operator="in" in2="shape" in="coloredNoise1" result="noise1Clipped" />
<feFlood flood-color="rgba(0, 0, 0, 0.25)" result="color1Flood" />
<feComposite operator="in" in2="noise1Clipped" in="color1Flood" result="color1" />
<feMerge result="effect1_noise_56965_221734">
<feMergeNode in="shape" />
<feMergeNode in="color1" />
</feMerge>
</filter>
<filter id="filter1_i_56965_221734" x="36.125" y="36.1227" width="289.756" height="293.872" filterUnits="userSpaceOnUse" color-interpolation-filters="sRGB">
<feFlood flood-opacity="0" result="BackgroundImageFix"/>
<feBlend mode="normal" in="SourceGraphic" in2="BackgroundImageFix" result="shape"/>
<feColorMatrix in="SourceAlpha" type="matrix" values="0 0 0 0 0 0 0 0 0 0 0 0 0 0 0 0 0 0 127 0" result="hardAlpha"/>
<feOffset dy="4.11663"/>
<feGaussianBlur stdDeviation="6.17495"/>
<feComposite in2="hardAlpha" operator="arithmetic" k2="-1" k3="1"/>
<feColorMatrix type="matrix" values="0 0 0 0 0 0 0 0 0 0 0 0 0 0 0 0 0 0 0.35 0"/>
<feBlend mode="normal" in2="shape" result="effect1_innerShadow_56965_221734"/>
</filter>
<filter id="filter2_dddddd_56965_221734" x="27" y="100" width="306.988" height="325" filterUnits="userSpaceOnUse" color-interpolation-filters="sRGB">
<feFlood flood-opacity="0" result="BackgroundImageFix"/>
<feColorMatrix in="SourceAlpha" type="matrix" values="0 0 0 0 0 0 0 0 0 0 0 0 0 0 0 0 0 0 127 0" result="hardAlpha"/>
<feOffset dy="2.49053"/>
<feGaussianBlur stdDeviation="0.996212"/>
<feColorMatrix type="matrix" values="0 0 0 0 0 0 0 0 0 0 0 0 0 0 0 0 0 0 0.0562291 0"/>
<feBlend mode="normal" in2="BackgroundImageFix" result="effect1_dropShadow_56965_221734"/>
<feColorMatrix in="SourceAlpha" type="matrix" values="0 0 0 0 0 0 0 0 0 0 0 0 0 0 0 0 0 0 127 0" result="hardAlpha"/>
<feOffset dy="5.98509"/>
<feGaussianBlur stdDeviation="2.39404"/>
<feColorMatrix type="matrix" values="0 0 0 0 0 0 0 0 0 0 0 0 0 0 0 0 0 0 0.0807786 0"/>
<feBlend mode="normal" in2="effect1_dropShadow_56965_221734" result="effect2_dropShadow_56965_221734"/>
<feColorMatrix in="SourceAlpha" type="matrix" values="0 0 0 0 0 0 0 0 0 0 0 0 0 0 0 0 0 0 127 0" result="hardAlpha"/>
<feOffset dy="11.2694"/>
<feGaussianBlur stdDeviation="4.50776"/>
<feColorMatrix type="matrix" values="0 0 0 0 0 0 0 0 0 0 0 0 0 0 0 0 0 0 0.1 0"/>
<feBlend mode="normal" in2="effect2_dropShadow_56965_221734" result="effect3_dropShadow_56965_221734"/>
<feColorMatrix in="SourceAlpha" type="matrix" values="0 0 0 0 0 0 0 0 0 0 0 0 0 0 0 0 0 0 127 0" result="hardAlpha"/>
<feOffset dy="20.1027"/>
<feGaussianBlur stdDeviation="8.04107"/>
<feColorMatrix type="matrix" values="0 0 0 0 0 0 0 0 0 0 0 0 0 0 0 0 0 0 0.119221 0"/>
<feBlend mode="normal" in2="effect3_dropShadow_56965_221734" result="effect4_dropShadow_56965_221734"/>
<feColorMatrix in="SourceAlpha" type="matrix" values="0 0 0 0 0 0 0 0 0 0 0 0 0 0 0 0 0 0 127 0" result="hardAlpha"/>
<feOffset dy="37.5998"/>
<feGaussianBlur stdDeviation="15.0399"/>
<feColorMatrix type="matrix" values="0 0 0 0 0 0 0 0 0 0 0 0 0 0 0 0 0 0 0.143771 0"/>
<feBlend mode="normal" in2="effect4_dropShadow_56965_221734" result="effect5_dropShadow_56965_221734"/>
<feColorMatrix in="SourceAlpha" type="matrix" values="0 0 0 0 0 0 0 0 0 0 0 0 0 0 0 0 0 0 127 0" result="hardAlpha"/>
<feOffset dy="90"/>
<feGaussianBlur stdDeviation="36"/>
<feColorMatrix type="matrix" values="0 0 0 0 0 0 0 0 0 0 0 0 0 0 0 0 0 0 0.2 0"/>
<feBlend mode="normal" in2="effect5_dropShadow_56965_221734" result="effect6_dropShadow_56965_221734"/>
<feBlend mode="normal" in="SourceGraphic" in2="effect6_dropShadow_56965_221734" result="shape"/>
</filter>
<radialGradient id="paint0_radial_56965_221734" cx="0" cy="0" r="1" gradientUnits="userSpaceOnUse" gradientTransform="translate(120.283 92.4929) rotate(49.4258) scale(235.758)">
<stop stop-color="#376A80"/>
<stop offset="1" stop-color="#013145"/>
</radialGradient>
<linearGradient id="paint1_linear_56965_221734" x1="180.494" y1="100" x2="180.494" y2="263" gradientUnits="userSpaceOnUse">
<stop stop-color="white" stop-opacity="0.8"/>
<stop offset="1" stop-color="white" stop-opacity="0.6"/>
</linearGradient>
<clipPath id="clip0_56965_221734">
<rect width="362" height="362" fill="white"/>
</clipPath>
</defs>
</svg>
