<svg width="362" height="362" viewBox="0 0 362 362" fill="none" xmlns="http://www.w3.org/2000/svg">
<g clip-path="url(#clip0_56930_13680)" filter="url(#filter0_n_56930_13680)">
<rect width="362" height="362" fill="#FFC25C"/>
<g filter="url(#filter1_i_56930_13680)">
<rect x="39" y="36" width="285" height="289" rx="100" fill="url(#paint0_radial_56930_13680)" fill-opacity="0.25"/>
</g>
<g filter="url(#filter2_dddddd_56930_13680)">
<path d="M214.668 147.333H164.168C159.703 147.333 155.421 149.107 152.265 152.264C149.108 155.421 147.334 159.702 147.334 164.167C147.334 168.631 149.108 172.913 152.265 176.07C155.421 179.226 159.703 181 164.168 181H197.834C202.299 181 206.58 182.773 209.737 185.93C212.894 189.087 214.668 193.369 214.668 197.833C214.668 202.298 212.894 206.579 209.737 209.736C206.58 212.893 202.299 214.667 197.834 214.667H147.334M181.001 231.5V130.5M112.405 152.552C111.177 147.018 111.365 141.264 112.953 135.822C114.542 130.381 117.478 125.428 121.491 121.424C125.503 117.42 130.461 114.494 135.906 112.918C141.351 111.341 147.106 111.164 152.637 112.404C155.681 107.643 159.875 103.725 164.832 101.01C169.789 98.2962 175.349 96.8736 181.001 96.8736C186.652 96.8736 192.213 98.2962 197.17 101.01C202.127 103.725 206.321 107.643 209.365 112.404C214.905 111.159 220.669 111.334 226.123 112.915C231.576 114.496 236.541 117.43 240.556 121.445C244.571 125.46 247.505 130.425 249.086 135.878C250.666 141.332 250.842 147.096 249.597 152.636C254.358 155.68 258.276 159.874 260.99 164.831C263.705 169.788 265.127 175.349 265.127 181C265.127 186.651 263.705 192.212 260.99 197.169C258.276 202.126 254.358 206.32 249.597 209.364C250.837 214.895 250.66 220.65 249.083 226.095C247.507 231.539 244.58 236.498 240.576 240.51C236.572 244.523 231.62 247.459 226.179 249.047C220.737 250.636 214.983 250.824 209.449 249.596C206.409 254.375 202.212 258.31 197.246 261.037C192.281 263.763 186.708 265.192 181.043 265.192C175.378 265.192 169.805 263.763 164.84 261.037C159.874 258.31 155.677 254.375 152.637 249.596C147.106 250.836 141.351 250.659 135.906 249.082C130.461 247.506 125.503 244.58 121.491 240.575C117.478 236.571 114.542 231.619 112.953 226.178C111.365 220.736 111.177 214.982 112.405 209.448C107.607 206.412 103.655 202.211 100.917 197.238C98.1782 192.264 96.7422 186.678 96.7422 181C96.7422 175.322 98.1782 169.736 100.917 164.762C103.655 159.789 107.607 155.588 112.405 152.552Z" stroke="url(#paint1_linear_56930_13680)" stroke-width="11" stroke-linecap="round" stroke-linejoin="round"/>
</g>
</g>
<defs>
<filter id="filter0_n_56930_13680" x="0" y="0" width="362" height="362" filterUnits="userSpaceOnUse" color-interpolation-filters="sRGB">
<feFlood flood-opacity="0" result="BackgroundImageFix"/>
<feBlend mode="normal" in="SourceGraphic" in2="BackgroundImageFix" result="shape"/>
<feTurbulence type="fractalNoise" baseFrequency="2 2" stitchTiles="stitch" numOctaves="3" result="noise" seed="1804" />
<feColorMatrix in="noise" type="luminanceToAlpha" result="alphaNoise" />
<feComponentTransfer in="alphaNoise" result="coloredNoise1">
<feFuncA type="discrete" tableValues="0 0 0 0 0 0 0 0 0 0 0 0 1 1 1 1 1 1 1 1 1 1 1 1 1 1 1 1 1 1 1 1 1 1 1 1 1 1 0 0 0 0 0 0 0 0 0 0 0 0 0 0 0 0 0 0 0 0 0 0 0 0 0 0 0 0 0 0 0 0 0 0 0 0 0 0 0 0 0 0 0 0 0 0 0 0 0 0 0 0 0 0 0 0 0 0 0 0 0 0 "/>
</feComponentTransfer>
<feComposite operator="in" in2="shape" in="coloredNoise1" result="noise1Clipped" />
<feFlood flood-color="rgba(0, 0, 0, 0.25)" result="color1Flood" />
<feComposite operator="in" in2="noise1Clipped" in="color1Flood" result="color1" />
<feMerge result="effect1_noise_56930_13680">
<feMergeNode in="shape" />
<feMergeNode in="color1" />
</feMerge>
</filter>
<filter id="filter1_i_56930_13680" x="39" y="36" width="285" height="293.333" filterUnits="userSpaceOnUse" color-interpolation-filters="sRGB">
<feFlood flood-opacity="0" result="BackgroundImageFix"/>
<feBlend mode="normal" in="SourceGraphic" in2="BackgroundImageFix" result="shape"/>
<feColorMatrix in="SourceAlpha" type="matrix" values="0 0 0 0 0 0 0 0 0 0 0 0 0 0 0 0 0 0 127 0" result="hardAlpha"/>
<feOffset dy="4.3333"/>
<feGaussianBlur stdDeviation="6.49995"/>
<feComposite in2="hardAlpha" operator="arithmetic" k2="-1" k3="1"/>
<feColorMatrix type="matrix" values="0 0 0 0 0 0 0 0 0 0 0 0 0 0 0 0 0 0 0.35 0"/>
<feBlend mode="normal" in2="shape" result="effect1_innerShadow_56930_13680"/>
</filter>
<filter id="filter2_dddddd_56930_13680" x="8" y="80" width="346" height="364" filterUnits="userSpaceOnUse" color-interpolation-filters="sRGB">
<feFlood flood-opacity="0" result="BackgroundImageFix"/>
<feColorMatrix in="SourceAlpha" type="matrix" values="0 0 0 0 0 0 0 0 0 0 0 0 0 0 0 0 0 0 127 0" result="hardAlpha"/>
<feOffset dy="2.49053"/>
<feGaussianBlur stdDeviation="0.996212"/>
<feColorMatrix type="matrix" values="0 0 0 0 0 0 0 0 0 0 0 0 0 0 0 0 0 0 0.0562291 0"/>
<feBlend mode="normal" in2="BackgroundImageFix" result="effect1_dropShadow_56930_13680"/>
<feColorMatrix in="SourceAlpha" type="matrix" values="0 0 0 0 0 0 0 0 0 0 0 0 0 0 0 0 0 0 127 0" result="hardAlpha"/>
<feOffset dy="5.98509"/>
<feGaussianBlur stdDeviation="2.39404"/>
<feColorMatrix type="matrix" values="0 0 0 0 0 0 0 0 0 0 0 0 0 0 0 0 0 0 0.0807786 0"/>
<feBlend mode="normal" in2="effect1_dropShadow_56930_13680" result="effect2_dropShadow_56930_13680"/>
<feColorMatrix in="SourceAlpha" type="matrix" values="0 0 0 0 0 0 0 0 0 0 0 0 0 0 0 0 0 0 127 0" result="hardAlpha"/>
<feOffset dy="11.2694"/>
<feGaussianBlur stdDeviation="4.50776"/>
<feColorMatrix type="matrix" values="0 0 0 0 0 0 0 0 0 0 0 0 0 0 0 0 0 0 0.1 0"/>
<feBlend mode="normal" in2="effect2_dropShadow_56930_13680" result="effect3_dropShadow_56930_13680"/>
<feColorMatrix in="SourceAlpha" type="matrix" values="0 0 0 0 0 0 0 0 0 0 0 0 0 0 0 0 0 0 127 0" result="hardAlpha"/>
<feOffset dy="20.1027"/>
<feGaussianBlur stdDeviation="8.04107"/>
<feColorMatrix type="matrix" values="0 0 0 0 0 0 0 0 0 0 0 0 0 0 0 0 0 0 0.119221 0"/>
<feBlend mode="normal" in2="effect3_dropShadow_56930_13680" result="effect4_dropShadow_56930_13680"/>
<feColorMatrix in="SourceAlpha" type="matrix" values="0 0 0 0 0 0 0 0 0 0 0 0 0 0 0 0 0 0 127 0" result="hardAlpha"/>
<feOffset dy="37.5998"/>
<feGaussianBlur stdDeviation="15.0399"/>
<feColorMatrix type="matrix" values="0 0 0 0 0 0 0 0 0 0 0 0 0 0 0 0 0 0 0.143771 0"/>
<feBlend mode="normal" in2="effect4_dropShadow_56930_13680" result="effect5_dropShadow_56930_13680"/>
<feColorMatrix in="SourceAlpha" type="matrix" values="0 0 0 0 0 0 0 0 0 0 0 0 0 0 0 0 0 0 127 0" result="hardAlpha"/>
<feOffset dy="90"/>
<feGaussianBlur stdDeviation="36"/>
<feColorMatrix type="matrix" values="0 0 0 0 0 0 0 0 0 0 0 0 0 0 0 0 0 0 0.2 0"/>
<feBlend mode="normal" in2="effect5_dropShadow_56930_13680" result="effect6_dropShadow_56930_13680"/>
<feBlend mode="normal" in="SourceGraphic" in2="effect6_dropShadow_56930_13680" result="shape"/>
</filter>
<radialGradient id="paint0_radial_56930_13680" cx="0" cy="0" r="1" gradientTransform="matrix(147.448 174.604 -172.188 149.517 123.115 94.2014)" gradientUnits="userSpaceOnUse">
<stop stop-color="#376A80"/>
<stop offset="1" stop-color="#013145"/>
</radialGradient>
<linearGradient id="paint1_linear_56930_13680" x1="240.101" y1="125.728" x2="240.101" y2="225.589" gradientUnits="userSpaceOnUse">
<stop stop-color="white" stop-opacity="0.8"/>
<stop offset="1" stop-color="white" stop-opacity="0.6"/>
</linearGradient>
<clipPath id="clip0_56930_13680">
<rect width="362" height="362" fill="white"/>
</clipPath>
</defs>
</svg>
