<svg width="362" height="362" viewBox="0 0 362 362" fill="none" xmlns="http://www.w3.org/2000/svg">
<g clip-path="url(#clip0_57001_18712)" filter="url(#filter0_n_57001_18712)">
<rect width="362" height="362" fill="#FFAA1C"/>
<g filter="url(#filter1_i_57001_18712)">
<path d="M174.331 38.6247C178.154 35.2886 183.853 35.2886 187.676 38.6247L223.516 69.9038C225.186 71.3616 227.288 72.2322 229.5 72.3825L276.96 75.6077C282.022 75.9517 286.052 79.9816 286.396 85.0435L289.621 132.504C289.772 134.716 290.642 136.818 292.1 138.488L323.379 174.328C326.715 178.151 326.715 183.85 323.379 187.673L292.1 223.513C290.642 225.183 289.772 227.285 289.621 229.497L286.396 276.957C286.052 282.019 282.022 286.049 276.96 286.393L229.5 289.618C227.288 289.769 225.186 290.639 223.516 292.097L187.676 323.376C183.853 326.712 178.154 326.712 174.331 323.376L138.491 292.097C136.821 290.639 134.719 289.769 132.507 289.618L85.0465 286.393C79.9846 286.049 75.9547 282.019 75.6107 276.957L72.3855 229.497C72.2352 227.285 71.3646 225.183 69.9068 223.513L38.6277 187.673C35.2916 183.85 35.2916 178.151 38.6277 174.328L69.9068 138.488C71.3646 136.818 72.2352 134.716 72.3855 132.504L75.6107 85.0435C75.9547 79.9816 79.9846 75.9517 85.0465 75.6077L132.507 72.3825C134.719 72.2322 136.821 71.3616 138.491 69.9038L174.331 38.6247Z" fill="url(#paint0_radial_57001_18712)" fill-opacity="0.4"/>
</g>
<g filter="url(#filter2_dddddd_57001_18712)">
<path d="M224.118 154.436H259.135V119.419H246.402V133.528C231.26 112.747 206.89 100 180.506 100C158.738 100 138.274 108.476 122.881 123.868C107.489 139.261 99.0124 159.726 99.0124 181.494H111.746C111.746 143.579 142.592 112.733 180.506 112.733C203.055 112.733 223.86 123.766 236.598 141.701H224.118V154.436ZM136.895 220.968H124.193C136.925 239.08 157.904 250.267 180.506 250.267C218.421 250.267 249.267 219.421 249.267 181.506H262C262 203.274 253.522 223.739 238.132 239.132C222.739 254.524 202.274 263 180.506 263C164.581 263 149.152 258.404 135.886 249.71C127.576 244.263 120.389 237.401 114.611 229.47V243.251H101.878V208.233H136.895V220.968Z" fill="url(#paint1_linear_57001_18712)"/>
</g>
<g filter="url(#filter3_dddddd_57001_18712)">
<path d="M180.5 157.781V190.125M180.5 157.781L167.562 170.719M180.5 157.781L193.438 170.719M156.781 189.406V199.469C156.781 202.644 159.356 205.219 162.531 205.219H198.469C201.644 205.219 204.219 202.644 204.219 199.469V189.406" stroke="url(#paint2_linear_57001_18712)" stroke-width="11" stroke-linecap="round" stroke-linejoin="round"/>
</g>
</g>
<defs>
<filter id="filter0_n_57001_18712" x="0" y="0" width="362" height="362" filterUnits="userSpaceOnUse" color-interpolation-filters="sRGB">
<feFlood flood-opacity="0" result="BackgroundImageFix"/>
<feBlend mode="normal" in="SourceGraphic" in2="BackgroundImageFix" result="shape"/>
<feTurbulence type="fractalNoise" baseFrequency="2 2" stitchTiles="stitch" numOctaves="3" result="noise" seed="1804" />
<feColorMatrix in="noise" type="luminanceToAlpha" result="alphaNoise" />
<feComponentTransfer in="alphaNoise" result="coloredNoise1">
<feFuncA type="discrete" tableValues="0 0 0 0 0 0 0 0 0 0 0 0 1 1 1 1 1 1 1 1 1 1 1 1 1 1 1 1 1 1 1 1 1 1 1 1 1 1 0 0 0 0 0 0 0 0 0 0 0 0 0 0 0 0 0 0 0 0 0 0 0 0 0 0 0 0 0 0 0 0 0 0 0 0 0 0 0 0 0 0 0 0 0 0 0 0 0 0 0 0 0 0 0 0 0 0 0 0 0 0 "/>
</feComponentTransfer>
<feComposite operator="in" in2="shape" in="coloredNoise1" result="noise1Clipped" />
<feFlood flood-color="rgba(0, 0, 0, 0.25)" result="color1Flood" />
<feComposite operator="in" in2="noise1Clipped" in="color1Flood" result="color1" />
<feMerge result="effect1_noise_57001_18712">
<feMergeNode in="shape" />
<feMergeNode in="color1" />
</feMerge>
</filter>
<filter id="filter1_i_57001_18712" x="36.125" y="36.1226" width="289.756" height="293.872" filterUnits="userSpaceOnUse" color-interpolation-filters="sRGB">
<feFlood flood-opacity="0" result="BackgroundImageFix"/>
<feBlend mode="normal" in="SourceGraphic" in2="BackgroundImageFix" result="shape"/>
<feColorMatrix in="SourceAlpha" type="matrix" values="0 0 0 0 0 0 0 0 0 0 0 0 0 0 0 0 0 0 127 0" result="hardAlpha"/>
<feOffset dy="4.11663"/>
<feGaussianBlur stdDeviation="6.17495"/>
<feComposite in2="hardAlpha" operator="arithmetic" k2="-1" k3="1"/>
<feColorMatrix type="matrix" values="0 0 0 0 0 0 0 0 0 0 0 0 0 0 0 0 0 0 0.35 0"/>
<feBlend mode="normal" in2="shape" result="effect1_innerShadow_57001_18712"/>
</filter>
<filter id="filter2_dddddd_57001_18712" x="27.0117" y="100" width="306.988" height="325" filterUnits="userSpaceOnUse" color-interpolation-filters="sRGB">
<feFlood flood-opacity="0" result="BackgroundImageFix"/>
<feColorMatrix in="SourceAlpha" type="matrix" values="0 0 0 0 0 0 0 0 0 0 0 0 0 0 0 0 0 0 127 0" result="hardAlpha"/>
<feOffset dy="2.49053"/>
<feGaussianBlur stdDeviation="0.996212"/>
<feColorMatrix type="matrix" values="0 0 0 0 0 0 0 0 0 0 0 0 0 0 0 0 0 0 0.0562291 0"/>
<feBlend mode="normal" in2="BackgroundImageFix" result="effect1_dropShadow_57001_18712"/>
<feColorMatrix in="SourceAlpha" type="matrix" values="0 0 0 0 0 0 0 0 0 0 0 0 0 0 0 0 0 0 127 0" result="hardAlpha"/>
<feOffset dy="5.98509"/>
<feGaussianBlur stdDeviation="2.39404"/>
<feColorMatrix type="matrix" values="0 0 0 0 0 0 0 0 0 0 0 0 0 0 0 0 0 0 0.0807786 0"/>
<feBlend mode="normal" in2="effect1_dropShadow_57001_18712" result="effect2_dropShadow_57001_18712"/>
<feColorMatrix in="SourceAlpha" type="matrix" values="0 0 0 0 0 0 0 0 0 0 0 0 0 0 0 0 0 0 127 0" result="hardAlpha"/>
<feOffset dy="11.2694"/>
<feGaussianBlur stdDeviation="4.50776"/>
<feColorMatrix type="matrix" values="0 0 0 0 0 0 0 0 0 0 0 0 0 0 0 0 0 0 0.1 0"/>
<feBlend mode="normal" in2="effect2_dropShadow_57001_18712" result="effect3_dropShadow_57001_18712"/>
<feColorMatrix in="SourceAlpha" type="matrix" values="0 0 0 0 0 0 0 0 0 0 0 0 0 0 0 0 0 0 127 0" result="hardAlpha"/>
<feOffset dy="20.1027"/>
<feGaussianBlur stdDeviation="8.04107"/>
<feColorMatrix type="matrix" values="0 0 0 0 0 0 0 0 0 0 0 0 0 0 0 0 0 0 0.119221 0"/>
<feBlend mode="normal" in2="effect3_dropShadow_57001_18712" result="effect4_dropShadow_57001_18712"/>
<feColorMatrix in="SourceAlpha" type="matrix" values="0 0 0 0 0 0 0 0 0 0 0 0 0 0 0 0 0 0 127 0" result="hardAlpha"/>
<feOffset dy="37.5998"/>
<feGaussianBlur stdDeviation="15.0399"/>
<feColorMatrix type="matrix" values="0 0 0 0 0 0 0 0 0 0 0 0 0 0 0 0 0 0 0.143771 0"/>
<feBlend mode="normal" in2="effect4_dropShadow_57001_18712" result="effect5_dropShadow_57001_18712"/>
<feColorMatrix in="SourceAlpha" type="matrix" values="0 0 0 0 0 0 0 0 0 0 0 0 0 0 0 0 0 0 127 0" result="hardAlpha"/>
<feOffset dy="90"/>
<feGaussianBlur stdDeviation="36"/>
<feColorMatrix type="matrix" values="0 0 0 0 0 0 0 0 0 0 0 0 0 0 0 0 0 0 0.2 0"/>
<feBlend mode="normal" in2="effect5_dropShadow_57001_18712" result="effect6_dropShadow_57001_18712"/>
<feBlend mode="normal" in="SourceGraphic" in2="effect6_dropShadow_57001_18712" result="shape"/>
</filter>
<filter id="filter3_dddddd_57001_18712" x="74" y="147" width="213" height="231" filterUnits="userSpaceOnUse" color-interpolation-filters="sRGB">
<feFlood flood-opacity="0" result="BackgroundImageFix"/>
<feColorMatrix in="SourceAlpha" type="matrix" values="0 0 0 0 0 0 0 0 0 0 0 0 0 0 0 0 0 0 127 0" result="hardAlpha"/>
<feOffset dy="2.49053"/>
<feGaussianBlur stdDeviation="0.996212"/>
<feColorMatrix type="matrix" values="0 0 0 0 0 0 0 0 0 0 0 0 0 0 0 0 0 0 0.0562291 0"/>
<feBlend mode="normal" in2="BackgroundImageFix" result="effect1_dropShadow_57001_18712"/>
<feColorMatrix in="SourceAlpha" type="matrix" values="0 0 0 0 0 0 0 0 0 0 0 0 0 0 0 0 0 0 127 0" result="hardAlpha"/>
<feOffset dy="5.98509"/>
<feGaussianBlur stdDeviation="2.39404"/>
<feColorMatrix type="matrix" values="0 0 0 0 0 0 0 0 0 0 0 0 0 0 0 0 0 0 0.0807786 0"/>
<feBlend mode="normal" in2="effect1_dropShadow_57001_18712" result="effect2_dropShadow_57001_18712"/>
<feColorMatrix in="SourceAlpha" type="matrix" values="0 0 0 0 0 0 0 0 0 0 0 0 0 0 0 0 0 0 127 0" result="hardAlpha"/>
<feOffset dy="11.2694"/>
<feGaussianBlur stdDeviation="4.50776"/>
<feColorMatrix type="matrix" values="0 0 0 0 0 0 0 0 0 0 0 0 0 0 0 0 0 0 0.1 0"/>
<feBlend mode="normal" in2="effect2_dropShadow_57001_18712" result="effect3_dropShadow_57001_18712"/>
<feColorMatrix in="SourceAlpha" type="matrix" values="0 0 0 0 0 0 0 0 0 0 0 0 0 0 0 0 0 0 127 0" result="hardAlpha"/>
<feOffset dy="20.1027"/>
<feGaussianBlur stdDeviation="8.04107"/>
<feColorMatrix type="matrix" values="0 0 0 0 0 0 0 0 0 0 0 0 0 0 0 0 0 0 0.119221 0"/>
<feBlend mode="normal" in2="effect3_dropShadow_57001_18712" result="effect4_dropShadow_57001_18712"/>
<feColorMatrix in="SourceAlpha" type="matrix" values="0 0 0 0 0 0 0 0 0 0 0 0 0 0 0 0 0 0 127 0" result="hardAlpha"/>
<feOffset dy="37.5998"/>
<feGaussianBlur stdDeviation="15.0399"/>
<feColorMatrix type="matrix" values="0 0 0 0 0 0 0 0 0 0 0 0 0 0 0 0 0 0 0.143771 0"/>
<feBlend mode="normal" in2="effect4_dropShadow_57001_18712" result="effect5_dropShadow_57001_18712"/>
<feColorMatrix in="SourceAlpha" type="matrix" values="0 0 0 0 0 0 0 0 0 0 0 0 0 0 0 0 0 0 127 0" result="hardAlpha"/>
<feOffset dy="90"/>
<feGaussianBlur stdDeviation="36"/>
<feColorMatrix type="matrix" values="0 0 0 0 0 0 0 0 0 0 0 0 0 0 0 0 0 0 0.2 0"/>
<feBlend mode="normal" in2="effect5_dropShadow_57001_18712" result="effect6_dropShadow_57001_18712"/>
<feBlend mode="normal" in="SourceGraphic" in2="effect6_dropShadow_57001_18712" result="shape"/>
</filter>
<radialGradient id="paint0_radial_57001_18712" cx="0" cy="0" r="1" gradientUnits="userSpaceOnUse" gradientTransform="translate(120.283 92.4929) rotate(49.4258) scale(235.758)">
<stop stop-color="#804337"/>
<stop offset="1" stop-color="#450101"/>
</radialGradient>
<linearGradient id="paint1_linear_57001_18712" x1="180.506" y1="100" x2="180.506" y2="263" gradientUnits="userSpaceOnUse">
<stop stop-color="white" stop-opacity="0.8"/>
<stop offset="1" stop-color="white" stop-opacity="0.6"/>
</linearGradient>
<linearGradient id="paint2_linear_57001_18712" x1="180.5" y1="157.781" x2="180.5" y2="205.219" gradientUnits="userSpaceOnUse">
<stop stop-color="white" stop-opacity="0.8"/>
<stop offset="1" stop-color="white" stop-opacity="0.6"/>
</linearGradient>
<clipPath id="clip0_57001_18712">
<rect width="362" height="362" fill="white"/>
</clipPath>
</defs>
</svg>
